<svg xmlns="http://www.w3.org/2000/svg" viewBox="0 0 1500 500"><defs><style>.cls-1{fill:#72ac7b;}.cls-2{fill:#fff;}</style></defs><g id="Background"><rect id="Background-2" data-name="Background" class="cls-1" width="1500" height="500"/></g><g id="Logo"><rect class="cls-2" x="820.86" y="197.41" width="58.22" height="46.65"/><rect class="cls-2" x="820.86" y="254.83" width="58.22" height="47.45"/><polygon class="cls-2" points="841.48 140.04 820.86 157.9 820.96 186.66 952.13 186.19 972.75 167.32 972.65 140.01 841.48 140.04"/><polygon class="cls-2" points="841.83 359.64 821.2 341.8 821.3 313.04 952.47 313.51 973.09 332.37 973 360 841.83 359.64"/><polygon class="cls-2" points="555.03 197.41 555.08 225.45 575.77 244.07 720.06 244.07 740.63 224.79 740.58 197.42 555.03 197.41"/><polygon class="cls-2" points="526.91 140.01 527.01 169.08 547.76 186.66 610.07 186.66 609.96 157.92 589.21 140 526.91 140.01"/><polygon class="cls-2" points="768.08 140.01 767.98 169.08 747.23 186.66 684.92 186.66 685.03 157.92 705.77 140 768.08 140.01"/><polygon class="cls-2" points="685.94 341.46 685.84 313.04 610.31 313.04 610.41 341.72 631.16 359.64 665.32 359.52 685.94 341.46"/><polygon class="cls-2" points="713.24 283.79 713.14 254.93 582.6 254.83 582.7 284.26 603.45 302.18 692.71 302.28 713.24 283.79"/></g></svg>